<svg id="SvgjsSvg1001" width="288" height="288" xmlns="http://www.w3.org/2000/svg" version="1.1" xmlns:xlink="http://www.w3.org/1999/xlink" xmlns:svgjs="http://svgjs.com/svgjs"><defs id="SvgjsDefs1002"></defs><g id="SvgjsG1008"><svg xmlns="http://www.w3.org/2000/svg" xmlns:svgjs="http://svgjs.com/svgjs" xmlns:xlink="http://www.w3.org/1999/xlink" viewBox="0 0 288 288" width="288" height="288"><svg xmlns="http://www.w3.org/2000/svg" enable-background="new 0 0 4000 4000" viewBox="0 0 4000 4000" width="288" height="288"><rect width="4000" height="4000" fill="#ff92d3" class="svgShape colorff306e-1 selectable"></rect><ellipse cx="1958.307" cy="3232.753" opacity=".15" rx="1325.591" ry="166.586" fill="#000000" class="svgShape color000000-2 selectable"></ellipse><path fill="#fff" d="M1340.824,1199.233c18.532-30.32,27.669-66.717,23.76-104.795      c-9.489-92.422-92.104-159.652-184.526-150.162c-92.422,9.489-159.652,92.105-150.162,184.526      c9.489,92.422,92.104,159.651,184.526,150.162c25.707-2.639,49.455-10.951,70.155-23.543l77.849,17.459L1340.824,1199.233z" class="svgShape colorffffff-3 selectable"></path><path fill="#fff" d="M1183.362,976.461c86.335-8.864,164.092,49.225,181.698,132.251       c0.021-5.931-0.235-11.914-0.854-17.946c-9.489-92.422-92.104-159.652-184.526-150.162       c-92.422,9.489-159.652,92.104-150.162,184.526c0.622,6.059,1.576,12.002,2.809,17.829       C1032.652,1058.052,1096.999,985.329,1183.362,976.461z" opacity=".5" class="svgShape colorffffff-4 selectable"></path><path d="M1197.108,1295.062c-92.813,0.01-172.661-70.422-182.339-164.707      c-10.332-100.615,63.12-190.876,163.735-201.209c48.731-5,96.514,9.27,134.517,40.198c38.003,30.928,61.69,74.802,66.69,123.542      c3.901,37.976-3.853,75.295-22.446,108.369l19.756,67.344c1.514,5.166,0.186,10.752-3.501,14.68      c-3.677,3.933-9.165,5.62-14.424,4.439l-72.002-16.148c-21.934,12.354-45.83,19.924-71.118,22.525      C1209.647,1294.745,1203.338,1295.062,1197.108,1295.062z M1197.528,958.587c-5.283,0-10.591,0.271-15.918,0.818      c-83.931,8.616-145.2,83.911-136.587,167.844c8.618,83.933,83.867,145.225,167.847,136.587      c22.842-2.346,44.307-9.548,63.804-21.409c3.369-2.046,7.393-2.705,11.235-1.846l52.656,11.809l-14.336-48.877      c-1.206-4.116-0.62-8.55,1.616-12.21c17.588-28.777,25.058-61.733,21.611-95.31c-4.175-40.659-23.931-77.261-55.635-103.059      C1266.273,970.518,1232.567,958.587,1197.528,958.587z" fill="#000000" class="svgShape color000000-5 selectable"></path><path d="M1341.768,1197.618c-46.077,38.973-109.555,56.041-172.591,40.352      c-69.908-17.399-121.415-70.633-139.942-135.24c-0.443,8.566-0.244,17.274,0.66,26.073      c9.489,92.422,92.104,159.651,184.526,150.162c25.707-2.639,49.455-10.951,70.155-23.543l77.849,17.459l-21.602-73.647      C1341.15,1198.701,1341.449,1198.153,1341.768,1197.618z" opacity=".3" fill="#000000" class="svgShape color000000-6 selectable"></path><path fill="#ff0068" d="M1251.031,1064.382L1251.031,1064.382c-14.558-14.558-38.162-11.95-52.721,2.609l-2.266,2.266      l-2.266-2.266c-14.558-14.558-38.162-17.167-52.72-2.609h0c-14.558,14.558-14.558,38.162,0,52.721l2.266,2.266l45.771,45.771      c3.838,3.838,10.061,3.838,13.899,0l45.771-45.771l2.266-2.266C1265.59,1102.544,1265.59,1078.94,1251.031,1064.382z" class="svgShape colorff0068-7 selectable"></path><path fill="#ff92d3" d="M1517.201,2521.197c0,0-345.509-227.024-465.347-555.659s120.976-419.6,381.341-445.384       c253.575-25.112,388.961,368.662,322.196,882.865L1517.201,2521.197z" class="svgShape colorff92d3-8 selectable"></path><path fill="#f266c1" d="M1109.279 1733.388c0 0-108.206 60.746 33.279 310.492s312.667 374.64 312.667 374.64S1306.414 1743.872 1109.279 1733.388zM1758.038 1980.739c0 0 7.286 243.684-297.365 191.913 0 0 55.336 165.461 74.935 294.503l194.153-48.995C1729.761 2418.161 1799.239 2297.331 1758.038 1980.739z" class="svgShape colorf266c1-9 selectable"></path><path fill="#fff" d="M1693.448,1707.867c0,0-65.145-146.861-223.006-188.281c0,0-203.374-10.916-327.714,140.106       c96.044,24.644,165.644,151.139,201.782,233.919C1400.283,1813.786,1517.035,1689.004,1693.448,1707.867z" opacity=".2" class="svgShape colorffffff-10 selectable"></path><path d="M1059.653,1857.234c-9.57-43.47-8.773-97.705,26.444-130.794       c13.453-11.985,32.218-18.726,49.968-17.224c34.099,5.435,58.044,32.824,79.559,56.663       c142.464,176.877,235.293,469.499,282.537,690.507c4.745,25.514-32.224,34.676-39.381,8.987       c-9.648-39.827-19.789-79.514-30.736-118.965c-33.233-117.733-72.813-234.341-123.061-345.731       c-33.231-72.814-70.587-146.619-120.175-208.954c-11.652-14.097-25.047-28.78-39.821-38.437       c-5.108-3.084-9.476-5.583-14.678-5.969c-25.883,1.597-36.987,28.279-43.862,50.707c-5.259,18.255-8.434,38.475-10.951,58.32       C1074.428,1865.181,1061.649,1865.733,1059.653,1857.234L1059.653,1857.234z" fill="#000000" class="svgShape color000000-11 selectable"></path><path d="M1517.2,2542.044c-4.004,0-7.988-1.15-11.45-3.423       c-14.341-9.426-352.666-234.626-473.481-565.94c-45.166-123.853-43.623-225.53,4.58-302.209       c59.551-94.731,188.525-150.689,394.292-171.064c74.99-7.439,144.307,19.302,200.562,77.295       c137.09,141.323,192.407,458.977,144.365,829.001c-0.894,6.9-5.176,12.898-11.406,15.991l-238.193,118.179       C1523.538,2541.326,1520.365,2542.044,1517.2,2542.044z M1455.887,1539.866c-6.797,0-13.672,0.344-20.635,1.035       c-192.095,19.023-310.864,68.664-363.101,151.76c-40.991,65.208-41.231,154.612-0.713,265.733       c104.863,287.561,390.957,499.05,447.466,538.684l217.217-107.771c43.979-352.925-7.222-652.527-134.346-783.572       C1559.32,1561.969,1510.321,1539.866,1455.887,1539.866z" fill="#000000" class="svgShape color000000-12 selectable"></path><path fill="#ff92d3" d="M1541.018,2510.484c0,0-253.927-280.305-544.606-317.057s-315.737,218.916-283.997,477.783       c30.913,252.115,377.549,288.191,780.95,98.983L1541.018,2510.484z" class="svgShape colorff92d3-13 selectable"></path><path fill="#f266c1" d="M819.804 2305.32c0 0 27.372-119.689 258.467-42.843s366.968 212.719 366.968 212.719S868.165 2494.06 819.804 2305.32zM1151.528 2874.944c0 0 199.045-51.897 95.47-334.967 0 0 145.339 13.653 253.927 1.443l-.465 200.239C1500.459 2741.659 1416.542 2838.311 1151.528 2874.944z" class="svgShape colorf266c1-14 selectable"></path><path fill="#fff" d="M917.232,2878.304c0,0-132.243-27.672-197.745-170.818c0,0-49.973-194.688,47.33-351.877       c39.401,87.226,156.032,124.148,230.455,139.181C943.829,2568.221,866.267,2711.698,917.232,2878.304z" opacity=".2" class="svgShape colorffffff-15 selectable"></path><path d="M912.56,2242.266c-33.351,15.774-81.008,37.308-75.603,80.704       c5.231,16.83,23.167,28.085,37.825,37.92c57.878,34.607,126.492,54.056,192.566,69.423       c67.775,15.5,137.045,25.555,206.662,31.381c34.818,2.844,69.712,5.229,104.681,6.357c34.967,1.121,69.976,1.357,105,0.995       c10.232-0.172,18.668,8.034,18.768,18.27c0.104,9.999-7.793,18.225-17.714,18.639c-35.663,1.589-71.373,1.995-107.073,1.312       c-143.053-3.267-287.343-20.844-423.202-68.198c-47.959-18.192-134.336-51.527-151.22-105.359       c-14.301-64.242,50-104.722,106.617-105.793C918.312,2227.748,920.29,2239.449,912.56,2242.266L912.56,2242.266z" fill="#000000" class="svgShape color000000-16 selectable"></path><path d="M1031.297,2909.464c-82.441,0-154.277-15.442-211.04-46.831       c-72.686-40.19-116.519-105.581-126.758-189.104c-26.797-218.577-2.5-362.014,74.287-438.511       c53.018-52.82,130.703-73.184,231.021-60.498c294.292,37.209,545.776,311.511,556.338,323.169       c3.979,4.397,5.688,10.398,4.619,16.236l-47.651,259.707c-1.113,6.055-5.078,11.201-10.654,13.813       C1329.593,2868.058,1166.253,2909.464,1031.297,2909.464z M943.714,2208.995c-63.633,0-113.623,17.754-149.028,53.027       c-67.905,67.646-88.628,200.735-63.354,406.868c8.818,71.904,44.941,125.867,107.368,160.388       c135.405,74.87,379.116,47.136,637.7-72.212l44.136-240.54c-40.781-42.539-271.235-271.917-526.514-304.194       C976.409,2210.106,959.632,2208.995,943.714,2208.995z" fill="#000000" class="svgShape color000000-17 selectable"></path><path fill="#fff" d="M1529.831,2815.457l122.254,70.578c-122.652,297.538-302.208,421.543-597.288,324.536       c-68.769-22.629-132.437-54.425-187.809-92.496c-182.307-124.99-276.094-317.24-174.964-471.929       c55.991-85.752,121.966-105.368,179.357-99.704c72.321,7.225,133.309,56.55,161.033,123.678       c30.461,73.953,74.001,137.145,121.579,186.072c79.562,82.079,170.723,124.406,231.965,111.501       C1493.605,2944.953,1529.831,2815.457,1529.831,2815.457z" class="svgShape colorffffff-18 selectable"></path><path fill="#f9a528" d="M1074.998,3043.96c-2.561,2.726-5.121,5.287-7.765,7.764       c-29.323,27.588-64.758,44.604-101.764,51.377c-65.006,11.977-134.886-7.434-185.52-56.416       c-4.295-4.13-8.425-8.343-12.555-12.638c-2.891-3.056-5.782-6.112-8.59-9.168c-1.983-2.23-4.048-4.46-6.03-6.691       c-6.195-7.021-12.142-14.125-17.841-21.229c-2.478-3.221-4.956-6.36-7.352-9.581c-2.478-3.139-4.791-6.36-7.104-9.582       c-2.313-3.222-4.543-6.443-6.773-9.664c-0.165-0.248-0.248-0.413-0.413-0.578c-6.526-9.582-12.555-19.246-18.007-28.993       c-7.6-13.216-14.29-26.68-19.907-40.226c-1.404-3.386-2.808-6.773-4.13-10.16c-1.239-3.387-2.561-6.773-3.717-10.16       c-2.478-6.773-4.626-13.629-6.443-20.485c-1.982-6.856-3.635-13.711-4.956-20.568c-0.496-2.726-1.073-5.452-1.487-8.177       c-0.743-4.13-1.404-8.26-1.9-12.39c-7.434-58.316,4.213-116.549,39.318-170.239c55.921-85.74,121.918-105.398,179.325-99.699       c72.275,7.186,133.317,56.498,160.989,123.652c16.933,41.053,37.913,78.883,61.372,112.667       C1149.503,2863.313,1142.978,2973.502,1074.998,3043.96z" class="svgShape colorf9a528-19 selectable"></path><path fill="#dae1f2" d="M1652.044,2886.028c-122.579,297.527-302.152,421.51-597.283,324.537       c-68.724-22.632-132.408-54.433-187.75-92.512c-31.966-21.889-61.125-45.843-87.061-71.366       c50.634,48.982,120.514,68.393,185.52,56.416c21.559,9.499,43.861,18.007,66.659,25.524       c276.216,90.778,451.246-12.06,573.081-269.69L1652.044,2886.028z" class="svgShape colordae1f2-20 selectable"></path><path fill="#f78b2b" d="M965.469,3103.102c-65.006,11.977-134.886-7.434-185.52-56.416       c-4.295-4.13-8.425-8.343-12.555-12.638c-2.891-3.056-5.782-6.112-8.59-9.168c-1.983-2.23-4.048-4.46-6.03-6.691       c-6.195-7.021-12.142-14.125-17.841-21.229c-2.478-3.221-4.956-6.36-7.352-9.581c-2.478-3.139-4.791-6.36-7.104-9.582       c-2.313-3.222-4.543-6.443-6.773-9.664c-0.165-0.248-0.248-0.413-0.413-0.578c-6.443-9.582-12.473-19.246-18.007-28.993       c-7.517-13.299-14.208-26.68-19.907-40.226c-1.404-3.386-2.808-6.773-4.13-10.16c-1.239-3.387-2.561-6.773-3.717-10.16       c-2.395-6.855-4.543-13.711-6.443-20.485c-1.9-6.856-3.552-13.711-4.956-20.568c-0.496-2.726-1.073-5.452-1.487-8.177       c-0.743-4.13-1.404-8.26-1.9-12.39c34.362,81.196,102.259,158.51,191.55,219.717       C881.3,3061.554,922.022,3084.186,965.469,3103.102z" class="svgShape colorf78b2b-21 selectable"></path><path fill="#fff" d="M835.179 2574.409c72.321 7.225 133.309 56.55 161.033 123.677 30.46 73.953 74 137.145 121.579 186.072 79.562 82.079 170.723 124.406 231.966 111.501 33.499-7.076 60.074-24.496 80.801-45.129-13.277 7.657-28.09 13.674-44.6 17.162-61.243 12.905-152.404-29.422-231.966-111.501-47.578-48.927-91.118-112.119-121.579-186.072-27.724-67.127-88.712-116.453-161.033-123.678-44.121-4.354-93.302 6.373-139.133 50.466C767.057 2576.209 802.508 2571.185 835.179 2574.409zM1529.831 2815.457c0 0-4.775 16.973-15.919 39.676l101.971 58.869c-48.364 117.324-105.631 207.534-175.284 267.983 86.372-58.775 154.989-158.898 211.485-295.95L1529.831 2815.457z" opacity=".5" class="svgShape colorffffff-22 selectable"></path><path d="M1237.415,3260.833c-57.905,0-120.493-11.223-188.149-33.471       c-190.996-62.815-347.427-197.647-398.525-343.499c-30.894-88.179-21.763-173.735,26.416-247.417       c64.492-98.64,142.163-112.947,195.986-107.593c77.271,7.698,144.57,59.233,175.635,134.492       c71.069,172.18,219.267,289.021,313.247,289.028c7.09,0.002,13.858-0.662,20.274-2.016       c95.62-20.193,130.127-138.552,130.464-139.746c1.484-5.259,5.322-9.551,10.386-11.606c5.049-2.061,10.791-1.677,15.527,1.057       l122.251,70.579c7.69,4.438,10.908,13.884,7.524,22.095C1566.37,3140.474,1427.025,3260.831,1237.415,3260.833z        M853.348,2563.292c-57.104,0-106.338,31.064-146.533,92.544c-41.924,64.119-49.751,138.916-22.632,216.311       c47.593,135.837,195.239,262.056,376.157,321.553c267.231,87.891,443.35-4.688,569.355-300.173l-90.239-52.097       c-16.011,40.2-59.727,124.57-149.834,143.596c-107.031,22.605-289.492-104.392-373.599-308.159       c-26.065-63.149-82.163-106.353-146.396-112.754C864.134,2563.565,858.704,2563.292,853.348,2563.292z" fill="#000000" class="svgShape color000000-23 selectable"></path><path fill="#ff92d3" d="M1461.762,2719.692c0,0-154.623,177.044-383.491,277.278l126.963,31.741       c0,0,10.023,73.505-30.07,170.398c0,0,248.915-90.775,365.855-352.772L1461.762,2719.692z" class="svgShape colorff92d3-24 selectable"></path><path fill="#f266c1" d="M1205.234,3028.711c0,0,214.108-162.602,227.613-175.967       c13.505-13.365,40.984,75.17,30.211,106.656c-10.773,31.486-132.4,167.128-272.794,233.489       C1190.265,3192.889,1219.155,3081.056,1205.234,3028.711z" class="svgShape colorf266c1-25 selectable"></path><path d="M1175.169,3218.167c-5.108,0-10.103-2.053-13.765-5.872c-5.229-5.457-6.738-13.489-3.848-20.474       c28.267-68.315,30.381-124.08,29.634-147.976l-113.545-28.386c-7.91-1.977-13.682-8.767-14.365-16.892       s3.877-15.784,11.343-19.053c222.051-97.249,375.268-270.623,376.787-272.363c3.97-4.541,9.873-6.948,15.864-6.452       c6.011,0.478,11.441,3.772,14.644,8.884l79.258,126.643c3.364,5.378,3.833,12.083,1.245,17.878       c-118.862,266.309-366.255,359.089-376.728,362.91C1179.564,3217.791,1177.357,3218.167,1175.169,3218.167z M1134.735,2991.444       l75.122,18.779c7.559,1.89,13.208,8.193,14.258,15.913c0.376,2.732,7.529,58.579-15.972,137.09       c72.207-36.572,225.84-132.095,311.284-315.469l-60.601-96.831C1416.18,2795.418,1298.28,2909.061,1134.735,2991.444z" fill="#000000" class="svgShape color000000-26 selectable"></path><path fill="#fff" d="M3129.847,3037.061v0.083c-15.777,94.082-58.894,170.322-137.116,170.322h-21.724       c0,0-0.166,0-0.496,0c-172.883,0-359.064,0-359.064,0l-0.743-4.626l-105.729-641.722       c362.45-72.027,398.216,125.8,400.694,143.394c0.083,0.826,0.165,1.239,0.165,1.239s7.93-10.242,21.889-20.485       c12.39-9.169,29.653-18.338,50.386-20.155c0.083-0.083,0.165-0.083,0.248-0.083c26.763-2.313,59.225,7.517,94.577,45.182       C3125.552,2766.215,3150.167,2916.3,3129.847,3037.061z" class="svgShape colorffffff-27 selectable"></path><path fill="#fff" d="M3129.847,3037.144c0,0.166-0.083,0.413-0.083,0.578c-0.496,2.726-0.991,5.451-1.487,8.177       c-1.321,6.939-2.726,13.794-4.377,20.485c-0.826,3.469-1.735,6.856-2.643,10.242c-0.496,1.817-0.991,3.552-1.487,5.286       c-1.322,4.708-2.726,9.251-4.295,13.794c-0.744,2.313-1.569,4.626-2.395,6.856c-0.083,0.331-0.248,0.661-0.413,1.074       c-0.826,2.395-1.734,4.708-2.725,7.021c-5.948,15.198-13.051,29.075-21.311,41.3c-1.322,1.9-2.643,3.799-3.965,5.617       c-1.405,1.9-2.809,3.799-4.295,5.617c0,0.083,0,0.083,0,0.083c-1.487,1.817-2.974,3.552-4.543,5.286       c-1.405,1.652-2.973,3.304-4.461,4.874c-1.734,1.817-3.469,3.469-5.204,5.121c-1.487,1.322-2.974,2.643-4.46,3.882       c-1.899,1.57-3.717,3.057-5.699,4.461c-1.57,1.156-3.139,2.23-4.708,3.304c-0.413,0.248-0.908,0.578-1.404,0.909       c-1.652,0.991-3.304,1.982-4.956,2.974c-0.331,0.165-0.661,0.33-0.991,0.578c-1.57,0.826-3.222,1.652-4.874,2.478       c-1.982,0.908-3.965,1.817-6.03,2.643c-0.248,0.083-0.495,0.248-0.743,0.33c-1.735,0.744-3.635,1.405-5.451,1.982       c-2.148,0.743-4.213,1.322-6.443,1.9c-0.165,0.083-0.33,0.083-0.578,0.165c-1.9,0.496-3.965,0.909-5.947,1.322       c0,0-0.083,0-0.166,0c-2.23,0.496-4.46,0.826-6.773,1.074c-1.57,0.248-3.139,0.413-4.791,0.496       c-0.826,0.083-1.652,0.165-2.478,0.165c-2.23,0.165-4.543,0.248-6.938,0.248h-21.724c0,0-0.166,0-0.496,0       c-6.526,0-75.662-2.148-104.737-91.852c-5.699-17.594-9.912-38.574-11.729-63.52c-9.086-124.231-14.373-275.472,51.625-347.582       c5.121-5.699,10.903-10.656,16.933-15.281c1.652-1.322,3.304-2.643,5.121-3.965c14.29-9.665,30.892-16.603,50.386-20.155       c0.083-0.083,0.165-0.083,0.248-0.083c26.763-2.313,59.225,7.517,94.577,45.182       C3125.552,2766.215,3150.167,2916.382,3129.847,3037.144z" class="svgShape colorffffff-28 selectable"></path><path fill="#dae1f2" d="M2970.511,3207.466c-172.883,0-359.064,0-359.064,0l-0.743-4.626       c54.269-46.587,143.311-87.226,143.311-87.226h111.759C2894.849,3205.318,2963.986,3207.466,2970.511,3207.466z" class="svgShape colordae1f2-29 selectable"></path><path fill="#dae1f2" d="M3129.847,3037.144c0,0.166-0.083,0.413-0.083,0.578c-0.496,2.726-0.991,5.451-1.487,8.177       c-1.321,6.939-2.726,13.794-4.377,20.485c-0.826,3.469-1.735,6.856-2.643,10.242c-0.496,1.817-0.991,3.552-1.487,5.286       c-1.322,4.708-2.726,9.251-4.295,13.794c-0.744,2.313-1.569,4.626-2.395,6.856c-0.083,0.331-0.248,0.661-0.413,1.074       c-0.826,2.395-1.734,4.708-2.725,7.021c-5.948,15.198-13.051,29.075-21.311,41.3c-1.322,1.9-2.643,3.799-3.965,5.617       c-1.405,1.9-2.809,3.799-4.295,5.617c0,0.083,0,0.083,0,0.083c-1.487,1.817-2.974,3.552-4.543,5.286       c-1.405,1.652-2.973,3.304-4.461,4.874c-1.734,1.817-3.469,3.469-5.204,5.121c-1.487,1.322-2.974,2.643-4.46,3.882       c-1.899,1.57-3.717,3.057-5.699,4.461c-1.57,1.156-3.139,2.23-4.708,3.304c-0.413,0.248-0.908,0.578-1.404,0.909       c-1.652,0.991-3.304,1.982-4.956,2.974c-0.331,0.165-0.661,0.33-0.991,0.578c-1.57,0.826-3.222,1.652-4.874,2.478       c-1.982,0.908-3.965,1.817-6.03,2.643c-0.248,0.083-0.495,0.248-0.743,0.33c-1.735,0.744-3.635,1.405-5.451,1.982       c-2.148,0.743-4.213,1.322-6.443,1.9c-0.165,0.083-0.33,0.083-0.578,0.165c-1.9,0.496-3.965,0.909-5.947,1.322       c0,0-0.083,0-0.166,0c-2.23,0.496-4.46,0.826-6.773,1.074c-1.57,0.248-3.139,0.413-4.791,0.496       c-0.826,0.083-1.652,0.165-2.478,0.165c-2.23,0.165-4.543,0.248-6.938,0.248h-21.724c0,0-0.166,0-0.496,0       c-6.526,0-75.662-2.148-104.737-91.852h40.061C2905.835,3115.614,3101.598,3142.542,3129.847,3037.144z" class="svgShape colordae1f2-30 selectable"></path><ellipse cx="3020.669" cy="3001.538" fill="#f99" rx="70.484" ry="94.65" class="svgShape colorff9999-31 selectable"></ellipse><ellipse cx="2946.831" cy="2877.454" fill="#f99" rx="38.767" ry="52.059" class="svgShape colorff9999-32 selectable"></ellipse><ellipse cx="3025.221" cy="2828.047" fill="#f99" rx="38.767" ry="52.059" class="svgShape colorff9999-33 selectable"></ellipse><ellipse cx="3099.229" cy="2884.435" fill="#f99" rx="38.767" ry="52.059" class="svgShape colorff9999-34 selectable"></ellipse><path d="M2919.889,2718.644c-28.112,35.698-36.869,83.916-41.773,128.378       c-1.617,17.307-26.9,16.01-26.739-1.371c0.612-25.568,2.755-51.764,8.444-76.779c6.193-26.665,14.855-53.924,32.037-76.057       C2909.339,2674.781,2936.46,2699.705,2919.889,2718.644L2919.889,2718.644z" fill="#000000" class="svgShape color000000-35 selectable"></path><path d="M2992.742,3226.519h-381.289c-9.331,0-17.285-6.753-18.804-15.959l-106.519-646.362       c-1.675-10.144,5.005-19.788,15.093-21.792c154.209-30.618,270.796-17.681,346.494,38.465       c39.468,29.275,58.901,64.148,68.374,89.287c15.547-11.506,37.656-23.093,64.668-24.395       c36.733-1.746,72.402,15.518,106.064,51.384c72.769,77.532,92.485,301.697,37.671,428.318       C3095.877,3191.575,3050.316,3226.519,2992.742,3226.519z M2627.625,3188.404h365.117c41.787,0,74.346-26.27,96.778-78.081       c52.114-120.39,26.196-326.699-30.489-387.092c-25.576-27.246-51.362-40.491-76.143-39.409       c-36.392,1.592-61.729,33.299-61.982,33.618c-4.805,6.118-12.905,8.723-20.347,6.55c-7.466-2.18-12.891-8.647-13.652-16.389       c-0.24-2.151-6.743-55.706-62.74-96.736c-62.983-46.152-165.556-57.991-297.402-34.49L2627.625,3188.404z" fill="#000000" class="svgShape color000000-36 selectable"></path><g><path fill="#fff" d="M2547.978,2740.218c-46.669-13.381-89.374-31.141-128.196-51.543       c-202.949-106.472-299.509-284.228-299.509-284.228s-222.69-321.315-118.036-321.315       c104.655,0,510.057,119.192,510.057,119.192s106.472,83.344,203.445,175.113c28.91,27.258,56.912,55.342,81.031,82.187       C2897.873,2571.961,2838.648,2823.81,2547.978,2740.218z" class="svgShape colorffffff-38 selectable"></path><path fill="#f78b2b" d="M2512.294,2724.937c-164.788-58.151-325.198-192.955-385.331-327.676       c0,0,141.908,138.769,316.36,220.543C2448.609,2661.583,2473.472,2701.726,2512.294,2724.937z" class="svgShape colorf78b2b-39 selectable"></path><path fill="#dae1f2" d="M2842.531,2581.625c-0.496,13.216-2.065,28.167-4.873,44.935       c-0.083,0.413-0.165,0.826-0.248,1.239c-10.408,58.976-46.256,96.807-98.377,114.236c-0.165,0.165-0.248,0.165-0.413,0.165       c-59.059,19.742-138.934,13.547-226.325-17.263c-38.822-23.211-63.685-63.355-68.971-107.133       c36.757,17.264,74.918,31.966,113.575,42.291c221.865,59.472,280.098-90.282,248.297-180.482c0,0,6.03,2.478,13.216,10.408       C2829.893,2502.659,2844.431,2529.174,2842.531,2581.625z" class="svgShape colordae1f2-40 selectable"></path><path d="M2131.135,2398.585c102.409,145.766,243.71,272.307,418.02,321.372       c67.282,19.13,144.832,28.6,206.488-9.053c85.483-52.96,86.17-183.28,15.325-249.374       c-83.09-88.524-176.056-168.055-270.432-244.189c-19.364-15.867,3.007-45.118,23.486-30.019       c48.659,38.296,95.887,77.561,142.312,118.298c34.821,30.55,68.99,62.056,101.969,94.706       c16.736,17.187,32.771,33.018,48.464,51.65c16.501,19.619,28.436,42.949,36.1,67.211       c26.683,81.135-0.747,180.461-75.663,226.027c-71.733,44.708-162.348,35.357-239.213,12.613       c-150.815-45.134-284.579-141.927-379.432-266.817c-18.7-25.656-35.677-51.486-49.1-80.655       c-2.811-6.219-0.049-13.54,6.171-16.353C2121.312,2391.428,2127.87,2393.538,2131.135,2398.585L2131.135,2398.585z" fill="#000000" class="svgShape color000000-41 selectable"></path><path d="M2717.367 2756.897c-22.917-25.822-42.982-54.269-59.322-84.78-2.052-4.045-.439-8.989 3.605-11.043 2.556-1.298 5.518-1.104 7.836.216 7.917 4.585 15.1 9.888 22.024 15.403 20.323 16.671 39.137 34.99 55.16 55.829C2760.548 2751.985 2733.853 2774.044 2717.367 2756.897L2717.367 2756.897zM2807.578 2678.937c-22.917-25.822-42.984-54.27-59.322-84.78-2.054-4.045-.44-8.989 3.605-11.043 2.556-1.298 5.516-1.102 7.834.216 7.919 4.586 15.101 9.888 22.025 15.404 20.323 16.669 39.136 34.991 55.16 55.827C2850.76 2674.025 2824.063 2696.085 2807.578 2678.937L2807.578 2678.937z" fill="#000000" class="svgShape color000000-42 selectable"></path></g><g><path fill="#fff" d="M2860.735,3035.37c-1.487,23.789-4.047,45.595-7.269,65.502       c-12.638,77.231-59.968,141.164-124.313,177.838c-37.914,21.724-81.692,33.949-127.7,33.949h-270.351       c-329.576,0-839.88-61.868-874.985-474.291c-1.487-16.189-2.148-32.958-1.982-50.221       c3.386-457.771,243.919-708.05,243.919-708.05l106.472,31.388l390.865,115.31l68.063,363.111l331.971,105.151l47.743,15.116       C2848.262,2650.534,2877.503,2778.069,2860.735,3035.37z" class="svgShape colorffffff-44 selectable"></path><path fill="#fff" d="M2861.974,3015.337c-0.413,6.608-0.826,13.298-1.239,20.072       c-1.487,23.789-4.047,45.595-7.269,65.502c-0.413,2.396-0.826,4.791-1.321,7.186c-0.413,2.396-0.908,4.791-1.487,7.187       c-0.496,2.313-1.074,4.626-1.652,7.021c-0.578,2.313-1.239,4.625-1.9,6.938c-0.661,2.313-1.322,4.626-2.065,6.856       c-0.744,2.313-1.487,4.543-2.23,6.773c-0.826,2.23-1.569,4.46-2.478,6.691c-0.578,1.569-1.157,3.139-1.818,4.791       c-1.404,3.469-2.891,6.938-4.543,10.325c-0.165,0.413-0.33,0.826-0.578,1.239c-1.404,3.139-2.974,6.278-4.543,9.417       c-2.643,5.039-5.451,9.995-8.425,14.868c-1.817,3.139-3.799,6.195-5.782,9.169c-0.083,0.083-0.165,0.248-0.331,0.413       c-59.224,88.052-185.273,76.653-234.255-2.395c-10.077-16.273-16.933-35.353-19.246-57.077       c-0.33-3.222-0.578-6.443-0.743-9.664c-5.039-105.316-7.104-255.814-7.104-255.814c5.451-77.479,21.228-135.795,42.456-179.739       l47.743,15.116C2842.811,2652.144,2875.851,2771.501,2861.974,3015.337z" class="svgShape colorffffff-45 selectable"></path><ellipse cx="2747.42" cy="3037.176" fill="#f99" rx="70.484" ry="94.65" class="svgShape colorff9999-46 selectable"></ellipse><ellipse cx="2673.582" cy="2913.092" fill="#f99" rx="38.767" ry="52.059" class="svgShape colorff9999-47 selectable"></ellipse><ellipse cx="2751.971" cy="2863.685" fill="#f99" rx="38.767" ry="52.059" class="svgShape colorff9999-48 selectable"></ellipse><ellipse cx="2825.98" cy="2920.072" fill="#f99" rx="38.767" ry="52.059" class="svgShape colorff9999-49 selectable"></ellipse><path fill="#dae1f2" d="M2814.314,3199.784c-21.806,32.545-51.13,59.555-85.161,78.966       c-37.913,21.724-81.691,33.948-127.7,33.948h-270.351c-342.543,0-880.272-66.823-876.968-524.512       c0.578-77.644,8.095-149.176,19.989-214.678c-2.725,31.966-4.46,65.006-4.708,99.368       c-3.304,457.688,534.425,524.512,876.968,524.512h233.676C2629.041,3276.437,2755.09,3287.836,2814.314,3199.784z" class="svgShape colordae1f2-50 selectable"></path><path fill="#dae1f2" d="M2861.974,3015.337c-0.413,6.608-0.826,13.298-1.239,20.072       c-1.487,23.789-4.047,45.595-7.269,65.502c-0.413,2.396-0.826,4.791-1.321,7.186c-0.413,2.396-0.908,4.791-1.487,7.187       c-0.496,2.313-1.074,4.626-1.652,7.021c-0.578,2.313-1.239,4.625-1.9,6.938c-0.661,2.313-1.322,4.626-2.065,6.856       c-0.744,2.313-1.487,4.543-2.23,6.773c-0.826,2.23-1.569,4.46-2.478,6.691c-0.578,1.569-1.157,3.139-1.818,4.791       c-1.404,3.469-2.891,6.938-4.543,10.325c-0.165,0.413-0.33,0.826-0.578,1.239c-1.404,3.139-2.974,6.278-4.543,9.417       c-2.643,5.039-5.451,9.995-8.425,14.868c-1.817,3.139-3.799,6.195-5.782,9.169c-0.083,0.083-0.165,0.248-0.331,0.413       c-59.224,88.052-185.273,76.653-234.255-2.395h36.675c46.009,0,89.787-12.225,127.7-33.949       C2800.272,3131.556,2843.307,3079.187,2861.974,3015.337z" class="svgShape colordae1f2-51 selectable"></path><path fill="#f9a528" d="M1834.178,2505.571c-62.033,188.824-215.835,316.855-378.062,332.797       c-1.487-16.189-2.148-32.958-1.982-50.221c3.386-457.771,243.919-708.05,243.919-708.05l106.472,31.388       C1865.483,2220.765,1880.434,2364.655,1834.178,2505.571z" class="svgShape colorf9a528-52 selectable"></path><path d="M1885.977,2862.252c23.964-94.999,97.459-187.014,186.256-229.082       c25.987-11.522,53.898-19.6,82.242-22.26c18.056-1.369,36.577-2.503,54.659-2.121c143.838,3.363,281.883,38.363,417.258,83.371       c14.204,4.294,17.462,22.013,6.817,31.961c-27.404,33.574-43.915,75.219-54.36,117.037       c-11.445,44.89-13.253,91.066-19.656,136.902c-0.402,3.615-3.744,6.251-7.366,5.629c-2.511-0.419-4.431-2.264-5.072-4.564       c-3.252-11.731-5.804-23.673-7.886-35.715c-10.074-78.626,5.279-167.511,54.12-231.587c4.431-5.649,8.772-10.465,14.213-15.566       c0,0,6.818,31.958,6.818,31.958c-16.127-5.228-32.99-10.105-49.585-14.91c-115.465-32.224-236.013-60.704-355.621-62.795       c-69.807-2.711-127.122,12.795-181.322,58.877c-51.149,43.056-86.682,102.862-119.769,160.578       C1901.75,2881.98,1883.043,2875.735,1885.977,2862.252L1885.977,2862.252z" fill="#000000" class="svgShape color000000-53 selectable"></path><path d="M2601.414,3331.766h-270.322c-152.896,0-289.551-13.254-406.162-39.392       c-159.409-35.732-281.846-95.764-363.906-178.428c-84.517-85.137-126.89-194.8-125.933-325.935       c1.753-240.146,69.082-423.013,125.254-534.128c61.142-120.95,121.426-184.336,123.965-186.975       c4.932-5.132,12.31-7.09,19.131-5.073l497.329,146.726c6.87,2.027,12.021,7.729,13.34,14.766l65.996,351.858l363.369,115.107       c78.779-21.919,136.182-17.253,175.386,14.216c65.073,52.239,71.416,170.549,60.928,332.122       c-1.538,23.618-4.063,46.274-7.515,67.339C2850.633,3235.965,2736.722,3331.766,2601.414,3331.766z M1704.261,2101.815       c-40.308,47.122-228.149,288.076-231.055,686.475c-0.879,120.606,37.768,221.138,114.868,298.804       c134.15,135.132,391.079,206.558,743.018,206.558h270.322c116.548,0,214.639-82.366,233.242-195.847       c3.252-19.846,5.64-41.26,7.095-63.645c8.413-129.531,8.569-255.517-46.753-299.927c-29.727-23.867-77.656-25.74-146.499-5.742       c-3.633,1.057-7.471,1.001-11.074-0.132l-379.702-120.281c-6.694-2.122-11.68-7.754-12.974-14.656l-65.952-351.604       L1704.261,2101.815z" fill="#000000" class="svgShape color000000-54 selectable"></path></g><g><path fill="#ff92d3" d="M2073.306,2655.2c-18.916,6.195-37.996,19.494-55.26,34.61       c-36.757,32.131-65.089,72.771-65.089,72.771c-288.771,52.451-498.328,0-498.328,0c-29.901-79.131-33.04-143.89-24.036-194.854       c8.26-47.495,27.01-83.096,44.521-107.38c0.248-0.413,0.578-0.826,0.909-1.239c5.204-7.186,10.242-13.299,14.868-18.42       c0.083-0.165,0.165-0.248,0.33-0.413c12.225-13.629,21.311-20.237,21.311-20.237       c275.555,126.378,497.915,159.419,497.915,159.419l17.842,21.476L2073.306,2655.2z" class="svgShape colorff92d3-56 selectable"></path><path fill="#f266c1" d="M1999.868,2680.54c-19.461,21.393-32.043,39.153-32.043,39.153       c-293.253,52.451-506.063,0-506.063,0c-23.571-61.455-30.785-114.236-28.52-158.593       C1497.664,2585.549,1716.513,2660.963,1999.868,2680.54z" class="svgShape colorf266c1-57 selectable"></path><path fill="#fff" d="M2028.289,2600.931c-260.687-3.883-553.175-140.586-553.175-140.586s0.331-0.413,0.909-1.239       c2.065-2.643,7.351-9.417,14.868-18.42c0.083-0.165,0.165-0.248,0.33-0.413c12.225-13.629,21.311-20.237,21.311-20.237       c275.555,126.378,497.915,159.419,497.915,159.419L2028.289,2600.931z" opacity=".5" class="svgShape colorffffff-58 selectable"></path><path fill="#030303" d="M1694.476,2805.104c-145.874,0-238.745-22.61-244.507-24.051       c-6.065-1.519-11.001-5.913-13.208-11.76c-48.101-127.498-28.604-219.37-3.779-273.992       c27.314-60.107,66.636-89.419,68.296-90.637c5.581-4.089,12.949-4.831,19.219-1.958       c269.629,123.643,490.576,157.532,492.773,157.859c4.644,0.691,8.872,3.071,11.865,6.685l62.837,75.762       c4.019,4.844,5.386,11.362,3.652,17.415c-1.733,6.052-6.343,10.857-12.319,12.839       c-43.428,14.409-94.653,77.224-110.727,100.212c-2.881,4.119-7.275,6.941-12.222,7.837       C1858.177,2799.146,1769.344,2805.104,1694.476,2805.104z M1468.9,2746.209c43.623,9.038,230.186,41.724,473.14-1.055       c13.687-18.396,54.873-70.479,100.791-96.87l-42.485-51.221c-40.376-6.921-242.446-45.22-484.712-154.69       C1487.913,2468.084,1404.447,2564.454,1468.9,2746.209z" class="svgShape color030303-59 selectable"></path></g><g><path fill="#fff" d="M2403.046,2861.578c-46.669-13.381-89.374-31.14-128.196-51.542       c-202.949-106.472-299.509-284.228-299.509-284.228s-71.201-102.672-114.154-191.964       c-29.075-60.463-45.265-114.732-17.594-126.792c3.717-1.652,8.26-2.561,13.712-2.561       c104.655,0,510.057,119.192,510.057,119.192s106.471,83.344,203.445,175.113c28.91,27.258,56.911,55.342,81.031,82.188       C2752.941,2693.321,2693.717,2945.17,2403.046,2861.578z" class="svgShape colorffffff-61 selectable"></path><path fill="#dae1f2" d="M2367.363,2846.337c-164.788-58.151-325.197-192.955-385.331-327.676       c0,0,141.908,138.768,316.36,220.543C2303.678,2782.982,2328.541,2823.126,2367.363,2846.337z" class="svgShape colordae1f2-62 selectable"></path><path fill="#dae1f2" d="M2697.6,2703.025c-0.496,13.216-2.065,28.167-4.873,44.935       c-0.083,0.413-0.165,0.826-0.248,1.239c-10.408,58.976-46.256,96.807-98.377,114.236c-0.165,0.166-0.248,0.166-0.413,0.166       c-59.06,19.741-138.934,13.546-226.325-17.263c-38.822-23.211-63.685-63.355-68.971-107.133       c36.757,17.264,74.918,31.966,113.575,42.291c221.865,59.472,280.098-90.282,248.297-180.481c0,0,6.03,2.478,13.216,10.408       C2684.962,2624.059,2699.5,2650.574,2697.6,2703.025z" class="svgShape colordae1f2-63 selectable"></path><path fill="#f9a528" d="M1861.188,2333.844c-29.075-60.463-45.265-114.732-17.594-126.792       C1854.828,2247.279,1860.858,2289.902,1861.188,2333.844z" class="svgShape colorf9a528-64 selectable"></path><path d="M1986.204,2519.984c102.411,145.768,243.71,272.308,418.021,321.373       c67.282,19.129,144.83,28.6,206.487-9.053c85.483-52.958,86.171-183.281,15.324-249.374       c-83.089-88.526-176.056-168.054-270.432-244.19c-19.364-15.864,3.009-45.119,23.488-30.017       c48.659,38.295,95.886,77.561,142.312,118.298c34.822,30.55,68.989,62.055,101.968,94.706       c16.737,17.187,32.772,33.018,48.463,51.65c16.502,19.618,28.436,42.949,36.101,67.211       c26.681,81.135-0.747,180.46-75.663,226.027c-71.732,44.708-162.349,35.356-239.213,12.613       c-150.815-45.134-284.581-141.927-379.432-266.817c-18.7-25.656-35.677-51.486-49.1-80.655       c-2.812-6.22-0.049-13.542,6.171-16.353C1976.38,2512.829,1982.939,2514.937,1986.204,2519.984L1986.204,2519.984z" fill="#000000" class="svgShape color000000-65 selectable"></path><path d="M2572.437 2878.297c-22.917-25.822-42.983-54.269-59.322-84.78-2.054-4.046-.44-8.99 3.605-11.043 2.556-1.298 5.516-1.104 7.834.216 7.919 4.585 15.101 9.888 22.025 15.403 20.323 16.671 39.136 34.99 55.16 55.829C2615.619 2873.385 2588.92 2895.445 2572.437 2878.297L2572.437 2878.297zM2662.646 2800.337c-22.917-25.823-42.982-54.269-59.322-84.78-2.053-4.045-.439-8.989 3.606-11.043 2.555-1.298 5.516-1.104 7.834.216 7.919 4.586 15.1 9.888 22.024 15.404 20.325 16.668 39.137 34.99 55.16 55.827C2705.827 2795.425 2679.133 2817.484 2662.646 2800.337L2662.646 2800.337z" fill="#000000" class="svgShape color000000-66 selectable"></path></g><g><path fill="#fff" d="M3251.104,1324.881c-37.914,152.893-103.168,295.214-103.168,295.214       s22.88,87.804,23.954,203.776c2.643,273.076-115.392,702.516-936.109,511.792l-180.399-45.678       c0,0-541.28-120.266-588.032-493.537c-39.07-311.816,207.162-567.795,207.162-567.795s-22.302-498.989,175.939-539.05       c198.241-40.144,452.154,269.525,452.154,269.525s4.708-0.083,13.217,0c35.27,0.413,136.208,4.708,241.11,37.252       c44.687,13.959,90.199,32.958,131.582,59.059c0,0,375.667-204.601,536.241-68.475       C3296.7,1047.923,3284.475,1190.408,3251.104,1324.881z" class="svgShape colorffffff-68 selectable"></path><path fill="#f9a528" d="M3147.936,1620.095c0,0,22.88,87.804,23.954,203.776       c-95.238,15.281-200.058,10.986-305.786-16.603c-320.903-83.757-529.303-349.813-465.536-594.31       c23.211-88.878,79.131-162.64,156.363-216.578c44.687,13.959,90.199,32.958,131.582,59.059c0,0,375.667-204.601,536.241-68.475       C3378.474,1117.224,3147.936,1620.095,3147.936,1620.095z" class="svgShape colorf9a528-69 selectable"></path><path fill="#dae1f2" d="M2261.076,2238.334l-180.421-45.637c0,0-541.265-120.306-588.041-493.546       c-7.525-60.045-4.398-117.984,5.442-172.464c-27.272,80.414-42.907,172.372-30.7,269.772       c46.776,373.24,588.04,493.546,588.04,493.546l180.421,45.637c684.771,159.128,880.336-113.467,924.826-366.736       C3083.274,2187.605,2858.146,2377.082,2261.076,2238.334z" class="svgShape colordae1f2-70 selectable"></path><path fill="#dae1f2" d="M2306.926,1790.292l-55.964-25.059c0,0-43.435,115.807-116.94,44.121       c0,0-5.012,71.983,47.611,83.677c52.623,11.694,109.623-37.588,109.623-37.588s45.372,82.112,91.079,81.15       c45.707-0.962,77.448-34.374,77.448-34.374s-104.926-11.694-87.127-109.422L2306.926,1790.292z" class="svgShape colordae1f2-71 selectable"></path><path fill="#fff" d="M3253.169,1304.314c23.376-143.642,0-300.665-175.36-310.66       c-175.444-10.078-352.125,100.276-352.125,100.276l16.355,31.636c-280.676-110.189-518.73-138.603-518.73-138.603       s54.186-14.042,92.512-27.836c35.27,0.413,136.208,4.708,241.11,37.252c44.687,13.959,90.199,32.958,131.582,59.059       c0,0,375.667-204.601,536.241-68.475c71.945,60.959,59.72,203.445,26.35,337.918       C3251.27,1318.686,3251.93,1311.83,3253.169,1304.314z" opacity=".6" class="svgShape colorffffff-72 selectable"></path><path d="M2221.047,964.13c179.407-38.643,402.983-7.316,531.425,133.962       c5.615,6.135,5.194,15.661-0.94,21.277c-5.7,5.231-14.313,5.184-20.004,0.316c-17.563-13.771-34.976-27.382-53.894-38.859       c-37.288-23.453-77.915-42.05-119.843-55.535c-106.32-34.629-221.005-42.046-332.263-35.595       C2209.658,991.179,2205.395,968.203,2221.047,964.13L2221.047,964.13z" fill="#000000" class="svgShape color000000-73 selectable"></path><path fill="#ff6c6c" d="M2127.244,988.615c-213.852,31.719-335.771,160.328-335.771,160.328        s-0.826-27.423,0.248-66.989c2.974-100.938,19.163-280.924,96.643-283.897c1.817-0.083,3.552-0.083,5.369,0        C2000.37,800.286,2127.244,988.615,2127.244,988.615z" class="svgShape colorff6c6c-74 selectable"></path><path fill="#f44a4a" d="M2127.244,988.615c-213.852,31.719-335.771,160.328-335.771,160.328        s-0.826-27.423,0.248-66.989c39.381-41.149,85.976-71.605,123.445-92.032c37.282-20.325,48.581-68.795,24.009-103.425        c-35.872-50.556-65.35-78.858-65.35-78.858c7.186-3.965,13.794-7.186,19.906-9.581        C2000.37,800.286,2127.244,988.615,2127.244,988.615z" class="svgShape colorf44a4a-75 selectable"></path><path d="M1791.444,1168.031c-2.28,0-4.58-0.41-6.787-1.255c-7.178-2.742-12.017-9.517-12.256-17.197        c-0.112-3.599-2.637-89.153,8.174-176.804c15.586-126.396,51.597-191.572,107.026-193.721        c116.982-4.724,249.834,190.598,255.434,198.906c3.657,5.427,4.272,12.349,1.631,18.337c-2.637,5.986-8.164,10.2-14.639,11.16        c-204.258,30.322-323.584,153.416-324.766,154.656C1801.595,1165.96,1796.571,1168.031,1791.444,1168.031z M1891.81,817.088        c-0.918,0-1.826,0.017-2.734,0.051c-55.185,2.141-78.164,158.909-79.063,289.495        c47.119-38.484,144.234-104.231,284.009-131.643C2049.149,915.465,1960.511,817.088,1891.81,817.088z" fill="#000000" class="svgShape color000000-76 selectable"></path><path fill="#ff6c6c" d="M2827.806,1160.326c177.173,123.89,228.817,293.41,228.817,293.41s12.987-24.168,29.697-60.047        c42.42-91.64,108.32-259.908,40.325-297.172c-1.589-0.885-3.141-1.66-4.803-2.398        C3025.434,1048.488,2827.806,1160.326,2827.806,1160.326z" class="svgShape colorff6c6c-77 selectable"></path><path fill="#f44a4a" d="M2827.806,1160.326c177.173,123.89,228.817,293.41,228.817,293.41s12.987-24.168,29.697-60.047        c-16.857-54.406-44.945-102.465-69.346-137.476c-24.279-34.836-12.742-83.25,24.71-103.26        c54.675-29.213,93.689-41.37,93.689-41.37c-4.659-6.757-9.133-12.59-13.531-17.463        C3025.434,1048.488,2827.806,1160.326,2827.806,1160.326z" class="svgShape colorf44a4a-78 selectable"></path><path d="M3056.634 1472.84c-.63 0-1.26-.029-1.895-.093-7.646-.762-14.087-6.04-16.333-13.386l0 0c-.503-1.638-52.3-165.066-221.509-283.418-5.361-3.75-8.423-9.99-8.115-16.526.313-6.536 3.955-12.454 9.653-15.676 8.716-4.937 214.697-120.207 317.378-63.887 48.638 26.68 51.748 101.077 9.243 221.126-29.473 83.252-69.941 158.674-71.65 161.843C3070.057 1469.034 3063.587 1472.84 3056.634 1472.84zM2863.616 1162.974c112.813 86.953 170.342 189.15 195.317 244.627 57.515-117.239 106.968-267.769 58.55-294.329C3056.888 1080.03 2931.239 1129.315 2863.616 1162.974zM2260.875 1802.949c-13.809-12.32-28.045-28.942-33.757-48.439-6.682-22.808 10.07-45.635 33.82-46.508 30.99-1.14 79.554 1.626 117.117 24.663 19.842 12.169 23.716 39.655 7.43 56.285-11.236 11.474-27.917 23.376-52.141 30.635C2308.061 1827.161 2280.57 1820.521 2260.875 1802.949z" fill="#000000" class="svgShape color000000-79 selectable"></path><path fill="#fff" d="M2352.862,1744.327c-0.637,3.651-11.432,7.034-22.134,9.515         c-12.844,2.977-29.421,0.083-40.497-7.068c-9.229-5.959-18.239-12.799-17.602-16.45c1.283-7.349,19.644-6.51,41.8-2.644         C2336.585,1731.547,2354.145,1736.979,2352.862,1744.327z" opacity=".54" class="svgShape colorffffff-80 selectable"></path><path d="M2140.167,1814.449c8.785,16.229,15.243,34.293,27.564,46.876        c8.325,8.453,19.521,11.657,30.854,11.72c20.765-0.85,36.676-14.589,52.003-31.746c9.213-10.696,17.635-22.855,24.957-35.153        c2.819-4.729,5.533-9.463,7.784-13.92c4.337-8.423,14.681-11.735,23.104-7.397c12.884,6.578,8.222,20.182,8.874,32.016        c0.439,22.692,3.853,47.142,14.714,66.837c19.552,35.565,69.146,34.325,100.023,14.845c8.534-4.411,19.466-16.555,27.26-4.716        c6.356,11.445-16.313,30.533-24.604,36.442c-41.991,28.102-108.76,17.442-133.854-28.383        c-17.915-31.532-21.05-67.342-17.842-102.599c0.001,0,33.021,9.021,33.021,9.021c-19.588,41.365-49.172,84.264-96.109,96.683        c-25.928,6.107-55.041-2.404-72.547-22.766c-12.47-14.504-19.335-31.285-19.708-49.652c0.349-6.797-0.98-24.095,9.962-22.134        C2137.817,1810.975,2139.288,1812.547,2140.167,1814.449L2140.167,1814.449z" fill="#000000" class="svgShape color000000-81 selectable"></path><path d="M2164.269,1878.761c0,0-8.18,159.296,77.717,180.478        c85.897,21.182,155.693-130.433,155.693-130.433s-111.093,14.482-99.425-127.724        C2298.254,1801.082,2248.019,1923.115,2164.269,1878.761z" fill="#000000" class="svgShape color000000-82 selectable"></path><path fill="#ff6c6c" d="M2173.262,1971.397c0,0,119.61-99.225,164.967,46.522        C2338.229,2017.919,2234.771,2135.641,2173.262,1971.397z" class="svgShape colorff6c6c-83 selectable"></path><path d="M2170.796,1890.261c3.552-1.357,6.891-7.28,6.66-10.326c-0.016,0.537-0.058,1.947-0.067,2.515        c-0.374,32.851,3.011,66.846,12.627,98.099c13.404,46.724,50.772,84.265,100.179,57.58        c42.876-24.863,71.824-72.165,93.68-115.677c-0.001-0.001,15.769,21.425,15.769,21.425        c-89.826,6.647-125.815-64.413-118.672-144.213c-0.001,0,33.32,8.02,33.32,8.02c-24.302,53.651-79.865,115.888-144.85,88.162        c0,0.001-1.485-0.581-1.485-0.581l-0.741-0.293l-0.371-0.146C2168.823,1894.713,2170.431,1892.735,2170.796,1890.261        L2170.796,1890.261z M2157.742,1867.261c5.642-0.781,13.801,0.104,19.481,2.804c0.481,0.159,1.43,0.462,1.923,0.628        c49.55,18.108,86.291-36.378,103.073-76.212c7.557-18.559,34.902-11.755,33.32,8.019        c-6.148,56.079,10.656,111.553,75.835,111.419c1.523,0.003,3.538-0.119,4.341-0.184c7.042-13.772,27.646-3.875,21.181,10.281        c-25.998,53.515-59.951,109.759-113.185,139.678c-38.309,21.596-86.914,12.504-113.708-22.773        c-32.477-42.906-38.007-97.097-39.215-148.692c0.018-2.281,0.042-8.253,0.133-10.47c-0.052-0.703,0.119-2.028,0.096-2.689        C2150.857,1874.711,2153.97,1869.307,2157.742,1867.261L2157.742,1867.261z" fill="#000000" class="svgShape color000000-84 selectable"></path><ellipse cx="1983.521" cy="1636.218" rx="137.939" ry="118.33" transform="rotate(-79.321 1983.605 1636.182)" fill="#000000" class="svgShape color000000-85 selectable"></ellipse><ellipse cx="2013.707" cy="1625.599" fill="#fff" rx="58.212" ry="49.937" transform="rotate(-79.321 2013.797 1625.562)" class="svgShape colorffffff-86 selectable"></ellipse><ellipse cx="1928.185" cy="1685.65" fill="#fff" opacity=".35" rx="29.001" ry="33.807" transform="rotate(-20.901 1928.049 1685.422)" class="svgShape colorffffff-87 selectable"></ellipse><ellipse cx="2653.753" cy="1789.54" rx="137.939" ry="118.331" transform="rotate(-77.355 2653.822 1789.627)" fill="#000000" class="svgShape color000000-88 selectable"></ellipse><ellipse cx="2630.237" cy="1767.838" fill="#fff" rx="58.212" ry="49.937" transform="rotate(-77.355 2630.31 1767.924)" class="svgShape colorffffff-89 selectable"></ellipse><ellipse cx="2684.997" cy="1856.842" fill="#fff" opacity=".35" rx="33.807" ry="29.001" transform="rotate(-45.773 2685.165 1856.83)" class="svgShape colorffffff-90 selectable"></ellipse><path d="M2052.493,2303.071c-199.377-37.998-436.773-155.827-545.706-332.605       c-116.225-186.63-62.882-429.294,44.565-607.405c31.787-52.804,67.135-102.489,109.417-147.657c0,0-5.301,14.059-5.301,14.059       c-2.952-148.345,6.577-377.861,98.689-498.399c19.88-25.685,48.883-48.362,81.702-57.52       c69.574-18.22,142.467,4.715,203.741,37.228c107.95,58.716,197.871,144.011,277.777,236.236       c-0.001,0.001-15.21-6.965-15.21-6.965c68.891-0.194,137.135,8.125,204.301,23.241c58.434,13.442,116.963,33.612,169.54,62.938       c0,0.001,22.679,13.077,22.679,13.077l-19.26-0.604c139.283-71.41,387.133-170.344,533.288-83.536       c25.055,14.43,46.909,36.596,59.583,62.604c74.977,153.672-41.898,459.863-107.009,610.245       c-0.041,0.15,1.111-12.748,1.102-12.719c4.163,16.136,7.267,31.285,10.205,46.982c66.366,382.53-67.085,703.96-489.244,738.993       c-153.262,12.289-307.332-11.73-454.896-51.149c-18.371-5.536-11.741-32.202,6.727-28.946       c345.616,68.348,804.736,98.082,896.385-336.159c21.481-103.212,19.393-211.846,2.544-315.996       c-2.443-14.841-5.307-30.148-8.605-44.115c-1.209-4.389-0.65-8.94,1.13-12.775c40.806-92.492,75.872-189.439,100.916-287.516       c21.287-89.016,54.299-243.458-12.036-316.429c-95.633-89.225-273.183-37.347-383.458,2.44       c-46.984,17.598-94.21,38.279-138.4,61.545c-6.306,3.351-13.567,2.864-19.263-0.603       c-55.411-33.815-117.175-56.798-180.492-71.139c-63.636-14.37-129.52-22.389-194.789-22.278       c-6.059,0.092-11.581-2.675-15.211-6.968c-14.713-17.581-30.884-35.248-47.12-52.202       c-48.794-50.672-101.794-98.568-159.565-138.305c-67.203-46.23-167.982-98.065-249.115-65.262       c-132.714,64.532-141.938,380.193-138.56,512.34c0.309,5.459-1.775,10.41-5.3,14.073       c-19.036,20.939-37.403,44.855-54.125,68.13c-107.289,151.284-180.684,345.048-135.782,530.684       c2.548,12.127,8.406,28.781,12.614,40.465c3.849,11.438,9.981,22.988,14.613,34.176c4.902,8.694,12.623,24.326,18.142,32.585       c14.77,24.403,32.453,47.197,51.167,68.74c81.12,89.605,188.076,150.642,297.845,198.821       c53.984,23.599,110.014,44.342,166.045,61.659C2074.488,2282.02,2068.932,2305.758,2052.493,2303.071L2052.493,2303.071z" fill="#000000" class="svgShape color000000-91 selectable"></path><path d="M1304.565 1642.307c38.172-7.474 76.686-9.785 115.394-10.483 38.751-.202 77.532 1.171 115.731 9.088 8.37 1.806 7.762 14.183-.735 15.135-38.283 4.187-76.448 5.164-114.858 5.236-38.481-.317-76.852-1.301-115.155-6.625C1298.103 1653.783 1297.783 1643.571 1304.565 1642.307L1304.565 1642.307zM1290.529 1808.179c37.064-11.8 75.058-18.511 113.434-23.637 38.472-4.643 77.154-7.723 116.01-4.236 8.52.835 9.337 13.201 1.004 15.12-37.551 8.545-75.353 13.891-113.502 18.363-38.265 4.094-76.495 7.517-115.156 6.615C1285.425 1820.32 1283.935 1810.208 1290.529 1808.179L1290.529 1808.179zM1362.205 2014.023c28.3-26.688 59.637-49.19 92.008-70.431 32.665-20.846 66.201-40.375 102.731-54.059 8.041-2.938 14.135 7.856 7.453 13.193-30.145 23.966-61.903 45.154-94.351 65.708-32.717 20.261-65.694 39.903-100.931 55.834C1362.862 2027.176 1357.142 2018.711 1362.205 2014.023L1362.205 2014.023zM3269.344 2098.484c-71.693-27.898-139.302-64.926-203.378-107.316-7.098-4.846-1.804-16.114 6.445-13.724 37.41 11.051 72.25 28.149 106.314 46.618 33.798 18.887 66.656 39.103 96.781 63.712C3280.869 2092.109 3275.774 2100.981 3269.344 2098.484L3269.344 2098.484zM3202.234 2250.562c-68.023-35.93-130.944-80.464-189.741-129.916-6.521-5.525.155-16.288 7.976-12.895 35.897 15.266 68.549 36.243 100.272 58.494 31.412 22.636 61.734 46.484 88.843 74.384C3214.413 2245.549 3208.337 2253.778 3202.234 2250.562L3202.234 2250.562zM3038.302 2394.032c-45.763-61.859-83.197-129.262-114.779-199.318-1.659-3.903.16-8.413 4.063-10.073 3.103-1.32 6.597-.428 8.729 1.948 25.745 29.306 46.091 62.356 65.048 96.151 18.51 34.007 35.514 68.634 47.865 105.521C3051.451 2394.789 3042.407 2399.575 3038.302 2394.032L3038.302 2394.032z" fill="#000000" class="svgShape color000000-92 selectable"></path></g></svg></svg></g></svg>