<!DOCTYPE svg PUBLIC "-//W3C//DTD SVG 1.1//EN" "http://www.w3.org/Graphics/SVG/1.1/DTD/svg11.dtd">
<!-- Uploaded to: SVG Repo, www.svgrepo.com, Transformed by: SVG Repo Mixer Tools -->
<svg width="800px" height="800px" viewBox="0 0 48 48" xmlns="http://www.w3.org/2000/svg" fill="#dadada">
<g id="SVGRepo_bgCarrier" stroke-width="0"/>
<g id="SVGRepo_tracerCarrier" stroke-linecap="round" stroke-linejoin="round"/>
<g id="SVGRepo_iconCarrier"> <path d="M0 0h48v48H0z" fill="none"/> <g id="Shopicon"> <path d="M8.444,27L24,42l15.556-15c2.7-2.033,4.444-5.256,4.444-8.889C44,11.978,39.022,7,32.889,7 C29.256,7,26.022,8.756,24,11.456C21.978,8.756,18.744,7,15.111,7C8.978,7,4,11.978,4,18.111C4,21.744,5.744,24.967,8.444,27z M15.111,11c2.256,0,4.329,1.04,5.687,2.853L24,18.128l3.202-4.275C28.56,12.04,30.633,11,32.889,11C36.81,11,40,14.19,40,18.111 c0,2.254-1.039,4.329-2.851,5.694l-0.195,0.147l-0.176,0.169L24,36.443L11.221,24.121l-0.176-0.169l-0.195-0.147 C9.039,22.44,8,20.365,8,18.111C8,14.19,11.19,11,15.111,11z"/> </g> </g>
</svg>