<!DOCTYPE svg PUBLIC "-//W3C//DTD SVG 1.1//EN" "http://www.w3.org/Graphics/SVG/1.1/DTD/svg11.dtd">
<!-- Uploaded to: SVG Repo, www.svgrepo.com, Transformed by: SVG Repo Mixer Tools -->
<svg fill="#ffffff" width="800px" height="800px" viewBox="0 0 22 22" xmlns="http://www.w3.org/2000/svg" id="memory-tooltip-end-alert" stroke="#ffffff" stroke-width="0.00022">
<g id="SVGRepo_bgCarrier" stroke-width="0"/>
<g id="SVGRepo_tracerCarrier" stroke-linecap="round" stroke-linejoin="round"/>
<g id="SVGRepo_iconCarrier">
<path d="M14 15H12V13H14V15M14 12H12V7H14V12M21 2V20H20V21H6V20H5V15H4V14H3V13H2V12H1V10H2V9H3V8H4V7H5V2H6V1H20V2H21M19 3H7V8H6V9H5V10H4V12H5V13H6V14H7V19H19V3Z"/>
</g>
</svg>